<?xml version="1.0" standalone="no"?>
<!DOCTYPE svg PUBLIC "-//W3C//DTD SVG 20010904//EN"
 "http://www.w3.org/TR/2001/REC-SVG-20010904/DTD/svg10.dtd">
<svg version="1.0" xmlns="http://www.w3.org/2000/svg"
 width="596.000000pt" height="596.000000pt" viewBox="0 0 596.000000 596.000000"
 preserveAspectRatio="xMidYMid meet">

<g transform="translate(0.000000,596.000000) scale(0.100000,-0.100000)"
fill="#000000" stroke="none">
<path d="M0 2980 l0 -2980 2980 0 2980 0 0 2980 0 2980 -2980 0 -2980 0 0
-2980z m1755 1423 c36 -21 89 -85 217 -258 69 -93 184 -251 257 -350 73 -99
136 -178 139 -176 6 3 172 229 469 637 36 50 81 101 99 113 72 50 77 50 612
51 276 0 502 -2 502 -5 0 -2 -88 -124 -196 -271 l-196 -267 263 -263 264 -264
448 0 c280 0 475 -4 520 -11 151 -24 294 -93 410 -199 81 -74 116 -130 124
-199 14 -120 -55 -198 -225 -254 -195 -65 -267 -71 -795 -72 l-468 -1 -276
-276 -275 -276 162 -218 c89 -121 180 -241 201 -269 21 -27 34 -54 30 -58 -4
-4 -235 -6 -512 -4 -555 3 -555 3 -615 65 -18 18 -148 191 -290 384 l-258 350
-23 -28 c-21 -26 -226 -304 -449 -608 -65 -89 -89 -115 -129 -136 l-49 -25
-510 0 c-331 0 -510 4 -513 10 -1 6 238 331 532 724 456 609 533 716 522 730
-7 9 -37 50 -67 91 -30 41 -163 220 -295 396 -511 686 -705 952 -695 956 6 2
243 1 527 -2 370 -4 524 -8 538 -17z"/>
<path d="M1090 4214 c0 -6 136 -194 414 -569 345 -466 434 -583 468 -608 101
-77 286 -151 465 -188 99 -21 146 -23 556 -28 l449 -6 19 -24 c12 -14 17 -31
14 -43 -4 -10 -98 -204 -210 -431 l-204 -412 72 -3 71 -3 461 461 460 460 478
0 c266 0 521 5 575 11 128 13 247 46 281 75 l26 24 -55 53 c-69 65 -156 112
-256 137 -72 19 -112 20 -568 20 l-491 0 -70 67 c-38 37 -246 241 -461 455
l-391 388 -66 0 c-37 0 -67 -2 -67 -4 0 -2 92 -191 205 -420 113 -229 205
-423 205 -431 0 -8 -9 -24 -20 -35 -19 -19 -33 -20 -404 -20 -393 0 -441 4
-538 40 -80 30 -131 80 -259 253 -62 83 -177 238 -254 342 -78 105 -183 247
-234 318 l-92 127 -290 0 c-159 0 -289 -3 -289 -6z"/>
<path d="M3405 4120 c55 -55 102 -100 105 -100 7 0 129 167 137 185 4 13 -20
15 -168 15 l-174 0 100 -100z"/>
<path d="M2689 3711 c-101 -138 -186 -258 -187 -267 -6 -24 35 -61 86 -78 37
-13 98 -16 314 -16 147 0 268 2 268 5 0 9 -281 589 -290 598 -4 5 -90 -104
-191 -242z"/>
<path d="M1889 2787 c-14 -17 -198 -261 -409 -542 l-384 -510 280 -3 c183 -2
286 1 299 8 11 6 45 45 75 86 139 192 444 601 463 622 38 41 77 56 147 55 114
0 123 -9 326 -287 99 -135 182 -246 185 -246 3 0 23 37 44 83 22 45 91 189
155 320 64 130 116 238 116 238 -1 1 -132 3 -291 5 -160 1 -329 8 -375 14
-191 26 -354 73 -505 146 -50 24 -93 44 -95 44 -3 0 -17 -15 -31 -33z"/>
<path d="M3407 1822 c-48 -48 -87 -89 -87 -92 0 -3 72 -4 161 -2 88 2 159 7
157 11 -9 23 -125 170 -133 170 -5 0 -49 -40 -98 -87z"/>
</g>
</svg>
